<svg width="37" height="34" viewBox="0 0 37 34" fill="none" xmlns="http://www.w3.org/2000/svg">
<path d="M17.5727 0.0508283C-1.16947 0.379658 -7.17429 27.4703 10.7543 33.7768C11.0122 33.8809 11.2914 33.921 11.5682 33.8937C11.845 33.8663 12.111 33.7725 12.3436 33.62C12.5762 33.4676 12.7685 33.2612 12.9039 33.0183C13.0394 32.7754 13.1141 32.5033 13.1216 32.2253V17.2777C13.0086 14.5013 4.42061 18.1953 4.64661 18.3715C4.41308 17.9458 4.24075 17.4893 4.13472 17.0155C9.7124 13.43 13.8301 14.9657 13.8301 14.9657C12.2357 14.2267 8.88415 13.6097 4.1212 16.1375C4.22502 14.1004 4.90053 12.1336 6.07042 10.4626C8.00637 9.47189 10.1657 8.99874 12.3385 9.08903C14.5114 9.17932 16.624 9.83004 18.471 10.978C20.3181 9.83608 22.4276 9.18809 24.5971 9.09628C26.7667 9.00446 28.9235 9.47184 30.8603 10.4536C31.9879 12.1358 32.6699 14.0768 32.8424 16.0946C27.0014 13.4142 24.2838 14.3532 22.6871 15.0934C22.6871 15.0934 27.094 13.569 32.7384 17.0144C32.6551 17.4983 32.4965 17.9661 32.2684 18.4009C31.1802 17.4551 23.9437 14.8222 23.7696 17.2856V32.2378C23.7771 32.5151 23.8515 32.7866 23.9865 33.029C24.1214 33.2714 24.313 33.4776 24.5448 33.63C24.7766 33.7825 25.0418 33.8767 25.3178 33.9046C25.5938 33.9325 25.8726 33.8934 26.1302 33.7904C44.895 27.0398 37.3251 -1.35715 17.5727 0.0508283Z" fill="#2130AC"/>
</svg>
